<svg width="35" height="35" viewBox="0 0 35 35" fill="none" xmlns="http://www.w3.org/2000/svg">
<path d="M15.3398 34.2135C10.582 29.8135 0 19.1492 0 13.1591C0 5.89142 7.8349 0 17.5 0C27.1615 0 35 5.89142 35 13.1591C35 19.1492 24.3359 29.8135 19.6602 34.2135C18.5391 35.2621 16.4609 35.2621 15.3398 34.2135ZM17.5 17.5454C20.7174 17.5454 23.3333 15.5784 23.3333 13.1591C23.3333 10.7397 20.7174 8.7727 17.5 8.7727C14.2826 8.7727 11.6667 10.7397 11.6667 13.1591C11.6667 15.5784 14.2826 17.5454 17.5 17.5454Z" fill="#002B9A"/>
</svg>
