<svg width="35" height="35" viewBox="0 0 35 35" fill="none" xmlns="http://www.w3.org/2000/svg">
<path d="M1.09375 6.5625C1.09375 4.75029 2.56279 3.28125 4.375 3.28125C6.18721 3.28125 7.65625 4.75029 7.65625 6.5625C7.65625 8.37402 6.18721 9.84375 4.375 9.84375C2.56279 9.84375 1.09375 8.37402 1.09375 6.5625ZM32.8125 4.375C34.0225 4.375 35 5.35459 35 6.5625C35 7.77246 34.0225 8.75 32.8125 8.75H13.125C11.915 8.75 10.9375 7.77246 10.9375 6.5625C10.9375 5.35459 11.915 4.375 13.125 4.375H32.8125ZM32.8125 15.3125C34.0225 15.3125 35 16.29 35 17.5C35 18.71 34.0225 19.6875 32.8125 19.6875H13.125C11.915 19.6875 10.9375 18.71 10.9375 17.5C10.9375 16.29 11.915 15.3125 13.125 15.3125H32.8125ZM32.8125 26.25C34.0225 26.25 35 27.2275 35 28.4375C35 29.6475 34.0225 30.625 32.8125 30.625H13.125C11.915 30.625 10.9375 29.6475 10.9375 28.4375C10.9375 27.2275 11.915 26.25 13.125 26.25H32.8125ZM1.09375 28.4375C1.09375 26.626 2.56279 25.1562 4.375 25.1562C6.18721 25.1562 7.65625 26.626 7.65625 28.4375C7.65625 30.249 6.18721 31.7188 4.375 31.7188C2.56279 31.7188 1.09375 30.249 1.09375 28.4375ZM7.65625 17.5C7.65625 19.3115 6.18721 20.7812 4.375 20.7812C2.56279 20.7812 1.09375 19.3115 1.09375 17.5C1.09375 15.6885 2.56279 14.2188 4.375 14.2188C6.18721 14.2188 7.65625 15.6885 7.65625 17.5Z" fill="#002B9A"/>
</svg>
