<svg width="22" height="21" viewBox="0 0 22 21" fill="none" xmlns="http://www.w3.org/2000/svg">
<path d="M17.6767 3.04787C16.4785 2.04668 14.5339 2.04668 13.3357 3.04787L4.29994 10.5947C2.23302 12.3215 2.23302 15.1188 4.29994 16.8455C6.36735 18.5723 9.71646 18.5723 11.7839 16.8455L19.2482 10.6112C19.7834 10.1641 20.6575 10.1641 21.1928 10.6112C21.7281 11.0582 21.7281 11.7883 21.1928 12.2354L13.7285 18.4697C10.5857 21.0947 5.49816 21.0947 2.3553 18.4697C-0.7851 15.8447 -0.7851 11.5955 2.3553 8.97053L11.391 1.42365C13.6647 -0.474551 17.3477 -0.474551 19.6214 1.42365C21.895 3.32186 21.895 6.39885 19.6214 8.29787L10.9785 15.5166C9.57405 16.6897 7.29548 16.6897 5.89101 15.5166C4.48606 14.3436 4.48606 12.4404 5.89101 11.2674L12.9624 5.36115C13.4977 4.91408 14.3718 4.91408 14.9071 5.36115C15.4424 5.80822 15.4424 6.5383 14.9071 6.98537L7.83566 12.8916C7.50664 13.1664 7.50664 13.6176 7.83566 13.8924C8.16468 14.1672 8.70485 14.1672 9.03387 13.8924L17.6767 6.67365C18.8749 5.67287 18.8749 4.04865 17.6767 3.04787Z" fill="#002B9A"/>
</svg>
