<svg width="33" height="35" viewBox="0 0 33 35" fill="none" xmlns="http://www.w3.org/2000/svg">
<path d="M0 17.5C0 7.83399 7.38633 0 16.5 0C25.6137 0 33 7.83399 33 17.5C33 27.166 25.6137 35 16.5 35C7.38633 35 0 27.166 0 17.5ZM23.9637 14.4785C24.6662 13.7334 24.6662 12.5166 23.9637 11.7715C23.2611 11.0264 22.1139 11.0264 21.4113 11.7715L14.4375 19.168L11.5887 16.1465C10.8861 15.4014 9.73887 15.4014 9.03633 16.1465C8.33379 16.8916 8.33379 18.1084 9.03633 18.8535L13.1613 23.2285C13.8639 23.9736 15.0111 23.9736 15.7137 23.2285L23.9637 14.4785Z" fill="#002B9A"/>
</svg>
