<svg width="35" height="30" viewBox="0 0 35 30" fill="none" xmlns="http://www.w3.org/2000/svg">
<path d="M3.88889 1.25H31.1111C32.4548 1.25 33.75 2.49249 33.75 4.28571V25.7143C33.75 27.5082 32.4572 28.75 31.1111 28.75H3.88889C2.54275 28.75 1.25 27.5082 1.25 25.7143V4.28571C1.25 2.49183 2.54275 1.25 3.88889 1.25ZM15.8333 10.7143C15.8333 7.7738 13.6443 5.17857 10.6944 5.17857C7.74821 5.17857 5.55556 7.77314 5.55556 10.7143C5.55556 13.0038 6.88266 15.084 8.86271 15.8929H8.75C5.26378 15.8929 2.63889 18.9667 2.63889 22.5C2.63889 23.6605 3.52017 24.8214 4.86111 24.8214H16.5278C17.8644 24.8214 18.75 23.6626 18.75 22.5C18.75 18.9682 16.1253 15.8929 12.6389 15.8929H12.5262C14.5062 15.084 15.8333 13.0038 15.8333 10.7143ZM22.3611 20.5357H30.1389C31.4755 20.5357 32.3611 19.3769 32.3611 18.2143C32.3611 17.3262 31.8443 16.4402 31.0044 16.0714C31.8443 15.7026 32.3611 14.8167 32.3611 13.9286C32.3611 13.0405 31.8443 12.1545 31.0044 11.7857C31.8443 11.4169 32.3611 10.531 32.3611 9.64286C32.3611 8.48027 31.4755 7.32143 30.1389 7.32143H22.3611C21.0245 7.32143 20.1389 8.48027 20.1389 9.64286C20.1389 10.531 20.6557 11.4169 21.4956 11.7857C20.6557 12.1545 20.1389 13.0405 20.1389 13.9286C20.1389 14.8167 20.6557 15.7026 21.4956 16.0714C20.6557 16.4402 20.1389 17.3262 20.1389 18.2143C20.1389 19.3769 21.0245 20.5357 22.3611 20.5357Z" fill="#002B9A" stroke="#002B9A" stroke-width="2.5"/>
</svg>
