<svg width="40" height="30" viewBox="0 0 40 30" fill="none" xmlns="http://www.w3.org/2000/svg">
<path d="M4.44444 1.25H35.5556C37.3605 1.25 38.75 2.65197 38.75 4.28571V25.7143C38.75 27.3487 37.3633 28.75 35.5556 28.75H4.44444C2.6367 28.75 1.25 27.3487 1.25 25.7143V4.28571C1.25 2.65134 2.6367 1.25 4.44444 1.25ZM17.9167 10.7143C17.9167 7.61428 15.3242 5.17857 12.2222 5.17857C9.12436 5.17857 6.52778 7.61366 6.52778 10.7143C6.52778 13.1092 8.0751 15.1077 10.2093 15.8929H10C6.28503 15.8929 3.19444 18.8072 3.19444 22.5C3.19444 23.8201 4.29248 24.8214 5.55556 24.8214H18.8889C20.1471 24.8214 21.25 23.8221 21.25 22.5C21.25 18.8087 18.1596 15.8929 14.4444 15.8929H14.2352C16.3693 15.1077 17.9167 13.1092 17.9167 10.7143ZM25.5556 20.5357H34.4444C35.7027 20.5357 36.8056 19.5364 36.8056 18.2143C36.8056 17.2244 36.1873 16.4155 35.3485 16.0714C36.1873 15.7274 36.8056 14.9184 36.8056 13.9286C36.8056 12.9387 36.1873 12.1298 35.3485 11.7857C36.1873 11.4417 36.8056 10.6327 36.8056 9.64286C36.8056 8.32076 35.7027 7.32143 34.4444 7.32143H25.5556C24.2973 7.32143 23.1944 8.32076 23.1944 9.64286C23.1944 10.6327 23.8127 11.4417 24.6515 11.7857C23.8127 12.1298 23.1944 12.9387 23.1944 13.9286C23.1944 14.9184 23.8127 15.7274 24.6515 16.0714C23.8127 16.4155 23.1944 17.2244 23.1944 18.2143C23.1944 19.5364 24.2973 20.5357 25.5556 20.5357Z" fill="white" stroke="#002B9A" stroke-width="2.5"/>
</svg>
