<svg width="25" height="27" viewBox="0 0 25 27" fill="none" xmlns="http://www.w3.org/2000/svg">
<path d="M7.54464 0.932871C7.84598 0.361125 8.4654 0 9.14062 0H15.8594C16.5346 0 17.154 0.361125 17.4554 0.932871L17.8571 1.6875H23.2143C24.202 1.6875 25 2.44318 25 3.375C25 4.30682 24.202 5.0625 23.2143 5.0625H1.78571C0.799665 5.0625 0 4.30682 0 3.375C0 2.44318 0.799665 1.6875 1.78571 1.6875H7.14286L7.54464 0.932871ZM22.0312 24.5795C21.942 25.9611 20.7757 27 19.3583 27H5.64174C4.22712 27 3.05636 25.9611 2.96819 24.5795L1.73549 6.75H23.2143L22.0312 24.5795Z" fill="#002B9A"/>
</svg>
