<svg width="35" height="35" viewBox="0 0 35 35" fill="none" xmlns="http://www.w3.org/2000/svg">
<g clip-path="url(#clip0_432_262)">
<path d="M0 4.375C0 1.9585 1.74089 0 3.88889 0H13.6111V8.75C13.6111 9.95996 14.48 10.9375 15.5556 10.9375H23.3333V20.4805L17.579 26.9541C17.0807 27.5146 16.7283 28.2188 16.5582 28.9912L15.6406 33.0996C15.5009 33.7422 15.5373 34.3984 15.7257 35H3.88889C1.74089 35 0 33.0381 0 30.625V4.375ZM15.5556 8.75V0L23.3333 8.75H15.5556ZM34.2769 17.0967C35.2309 18.1631 35.2309 19.8926 34.2769 20.9658L32.4905 22.9756L28.1823 18.1221L29.9688 16.1123C30.9167 15.0459 32.454 15.0459 33.408 16.1123L34.2769 17.0967ZM18.9523 28.4443L26.803 19.6738L31.1172 24.5205L23.2665 33.3525C23.0174 33.6328 22.7014 33.8311 22.3611 33.9268L18.7092 34.959C18.375 35.0479 18.0286 34.9385 17.7856 34.6719C17.5425 34.3984 17.4453 34.002 17.5304 33.5713L18.4418 29.5176C18.5269 29.1348 18.7031 28.7861 18.9523 28.4443Z" fill="#002B9A"/>
</g>
<defs>
<clipPath id="clip0_432_262">
<rect width="35" height="35" fill="white"/>
</clipPath>
</defs>
</svg>
