<svg width="29" height="30" viewBox="0 0 29 30" fill="none" xmlns="http://www.w3.org/2000/svg">
<g clip-path="url(#clip0_534_913)">
<path d="M12.7102 29.25C8.76797 25.4883 0 16.3711 0 11.25C0 5.03672 6.49177 0 14.5 0C22.5052 0 29 5.03672 29 11.25C29 16.3711 20.1641 25.4883 16.2898 29.25C15.3609 30.1465 13.6391 30.1465 12.7102 29.25ZM14.5 15C17.1659 15 19.3333 13.3184 19.3333 11.25C19.3333 9.18164 17.1659 7.5 14.5 7.5C11.8341 7.5 9.66667 9.18164 9.66667 11.25C9.66667 13.3184 11.8341 15 14.5 15Z" fill="#002B9A"/>
</g>
<defs>
<clipPath id="clip0_534_913">
<rect width="29" height="30" fill="white"/>
</clipPath>
</defs>
</svg>
