<svg width="30" height="30" viewBox="0 0 30 30" fill="none" xmlns="http://www.w3.org/2000/svg">
<path d="M29.0276 2.08064C30.3241 3.37537 30.3241 5.47465 29.0276 6.76939L27.2515 8.55135L21.4495 2.7508L23.2315 0.971206C24.5281 -0.323735 26.6239 -0.323735 27.9205 0.971206L29.0276 2.08064ZM10.2067 13.9979L20.1115 4.08993L25.9135 9.8893L16.0028 19.7937C15.6416 20.1607 15.1976 20.4331 14.7062 20.5988L9.44891 22.3512C8.88648 22.5169 8.37733 22.3867 7.9925 21.9545C7.6136 21.623 7.48335 21.0606 7.64912 20.5515L9.40155 15.2944C9.56732 14.803 9.83966 14.359 10.2067 13.9979ZM11.3671 3.42451C12.415 3.42451 13.2616 4.32615 13.2616 5.31895C13.2616 6.4201 12.415 7.2134 11.3671 7.2134H5.68356C4.63743 7.2134 3.78904 8.11326 3.78904 9.10784V24.3167C3.78904 25.3645 4.63743 26.2111 5.68356 26.2111H20.8397C21.8876 26.2111 22.7342 25.3645 22.7342 24.3167V18.5801C22.7342 17.5855 23.5808 16.6856 24.6287 16.6856C25.6766 16.6856 26.5233 17.5855 26.5233 18.5801V24.3167C26.5233 27.4543 23.9775 30 20.8397 30H5.68356C2.54458 30 0 27.4543 0 24.3167V9.10784C0 5.97017 2.54458 3.42451 5.68356 3.42451H11.3671Z" fill="#002B9A"/>
</svg>
