<svg width="30" height="30" viewBox="0 0 30 30" fill="none" xmlns="http://www.w3.org/2000/svg">
<path d="M12.0079 0.299024C6.15599 1.45047 1.44379 6.18574 0.29783 12.0586C-1.433 20.9145 4.59674 28.7898 12.7656 29.9777C13.956 30.1592 15.0306 29.2072 15.0306 27.9985L15.0306 27.9568C15.0306 26.9676 14.3142 26.1417 13.3499 25.9933C8.0678 25.1775 4.00686 20.5799 4.00686 15.0445C4.00686 8.57706 9.55567 3.38549 16.1177 4.0203C21.85 4.57773 26.0493 9.75554 26.0493 15.5348V16.5505C26.0493 17.9389 24.9259 19.0677 23.5445 19.0677C22.1631 19.0677 21.039 17.9389 21.039 16.5505V9.00194C21.039 8.44589 20.5906 7.99505 20.0365 7.99505L18.0339 7.99528C17.5768 7.99528 17.2073 8.30904 17.0871 8.72939C15.5309 7.96574 13.6905 7.69988 11.6979 8.40847C9.27137 9.27143 7.4322 11.4826 7.08153 14.0425C6.4877 18.3799 9.82494 22.0876 14.0262 22.0876C15.6818 22.0876 17.1841 21.4877 18.3839 20.5238C19.8868 22.4911 22.4687 23.5841 25.2346 22.8801C28.1264 22.2073 30.0552 19.3664 29.9988 16.4187V15.1051C29.9988 5.72755 21.6139 -1.59043 12.0079 0.299024ZM13.9679 18.122C12.3103 18.122 10.9621 16.7669 10.9621 15.1019C10.9621 13.437 12.3103 12.0819 13.9679 12.0819C15.6255 12.0819 16.9737 13.437 16.9737 15.1019C16.9737 16.7669 15.6837 18.122 13.9679 18.122Z" fill="#002B9A"/>
</svg>
