<svg width="22" height="37" viewBox="0 0 22 37" fill="none" xmlns="http://www.w3.org/2000/svg">
<g clip-path="url(#clip0_294_135)">
<path d="M16.4996 32.375C15.7959 32.375 15.0919 32.1492 14.5557 31.6975L0.805664 20.135C-0.268555 19.2317 -0.268555 17.7683 0.805664 16.865L14.5557 5.30249C15.6299 4.39917 17.3701 4.39917 18.4443 5.30249C19.5186 6.20581 19.5186 7.66919 18.4443 8.57251L6.63824 18.5L18.4461 28.4293C19.5203 29.3326 19.5203 30.796 18.4461 31.6993C17.9089 32.151 17.2043 32.375 16.4996 32.375Z" fill="#002B9A"/>
<g clip-path="url(#clip1_294_135)">
<path d="M17.7515 32.375C17.0479 32.375 16.3439 32.1492 15.8076 31.6975L2.05762 20.135C0.983398 19.2317 0.983398 17.7683 2.05762 16.865L15.8076 5.30249C16.8818 4.39917 18.6221 4.39917 19.6963 5.30249C20.7705 6.20581 20.7705 7.66919 19.6963 8.57251L7.8902 18.5L19.698 28.4293C20.7722 29.3326 20.7722 30.796 19.698 31.6993C19.1609 32.151 18.4562 32.375 17.7515 32.375Z" fill="#FFFBFB"/>
</g>
</g>
<defs>
<clipPath id="clip0_294_135">
<rect width="22" height="37" fill="white"/>
</clipPath>
<clipPath id="clip1_294_135">
<rect width="22" height="37" fill="white" transform="translate(1.25195)"/>
</clipPath>
</defs>
</svg>
