<svg width="37" height="37" viewBox="0 0 29 27" fill="none" xmlns="http://www.w3.org/2000/svg">
<path d="M28.925 13.3476C28.9262 14.4828 27.9312 15.4017 26.7032 15.4017L16.6954 15.4017L16.7048 24.6423C16.7059 25.7775 15.7109 26.6952 14.4829 26.6952C13.2548 26.6952 12.258 25.7775 12.2568 24.6423L12.2474 15.4017L2.23963 15.4017C1.01158 15.4017 0.0147328 14.4828 0.013578 13.3476C0.0124232 12.2124 1.00741 11.2948 2.23545 11.2948L12.2433 11.2948L12.2339 2.05412C12.2327 0.91893 13.2277 0 14.4557 0C15.6838 0 16.6806 0.91893 16.6818 2.05412L16.6912 11.2948L26.699 11.2948C27.9291 11.2941 28.9239 12.2118 28.925 13.3476Z" fill="#002B9A"/>
</svg>
