<svg width="26" height="34" viewBox="0 0 26 34" fill="none" xmlns="http://www.w3.org/2000/svg">
<path d="M4.64286 14.25H6.14286V12.75V9.5625C6.14286 4.91365 9.39785 1.5 13 1.5C16.6022 1.5 19.8571 4.91365 19.8571 9.5625V12.75V14.25H21.3571H22.2857C23.3225 14.25 24.5 15.2881 24.5 17V29.75C24.5 31.4619 23.3225 32.5 22.2857 32.5H3.71429C2.6753 32.5 1.5 31.4627 1.5 29.75V17C1.5 15.2873 2.6753 14.25 3.71429 14.25H4.64286ZM6.85714 12.75V14.25H8.35714H17.6429H19.1429V12.75V9.5625C19.1429 5.9967 16.5773 2.75 13 2.75C9.42272 2.75 6.85714 5.9967 6.85714 9.5625V12.75Z" stroke="#002B9A" stroke-width="3"/>
</svg>
