<svg width="25" height="22" viewBox="0 0 25 22" fill="none" xmlns="http://www.w3.org/2000/svg">
<g clip-path="url(#clip0_294_114)">
<path d="M17.71 0.830014C18.9307 -0.244119 20.9131 -0.244119 22.1338 0.830014L24.0576 2.52427C25.2783 3.59806 25.2783 5.34087 24.0576 6.41509L21.6943 8.49478L15.3467 2.9097L17.71 0.830014ZM20.5908 9.46587L9.20409 19.4819C8.69628 19.9288 8.0664 20.2596 7.37792 20.4358L1.50243 21.9569C1.0913 22.0643 0.646473 21.9655 0.343251 21.6604C0.0400183 21.4327 -0.0733509 21.0417 0.0476452 20.6764L1.77587 15.5073C1.97899 14.9014 2.35155 14.3471 2.85985 13.9002L14.2432 3.88165L20.5908 9.46587Z" fill="#002B9A"/>
</g>
<defs>
<clipPath id="clip0_294_114">
<rect width="25" height="22" fill="white"/>
</clipPath>
</defs>
</svg>
