<svg width="30" height="30" viewBox="0 0 30 30" fill="none" xmlns="http://www.w3.org/2000/svg">
<path d="M28.7379 22.394L28.7385 22.3914C28.7859 22.1881 28.6681 21.8407 28.3445 21.6519L22.0419 18.9506L22.0376 18.9488C21.8047 18.8479 21.527 18.9178 21.3704 19.112L21.3641 19.1199L21.3641 19.1198L18.781 22.272L18.1529 23.0386L17.2633 22.6018C12.9576 20.4878 9.45873 16.9895 7.34554 12.6854L6.90426 11.7866L7.68506 11.1598L10.8349 8.63103C11.0311 8.46862 11.099 8.19257 10.9991 7.95647C10.9989 7.95614 10.9988 7.9558 10.9986 7.95546L8.27656 1.60765C8.15607 1.33753 7.8725 1.20372 7.60825 1.26495L7.60699 1.26525L1.70018 2.62748L1.69717 2.62818L1.69717 2.62817C1.43363 2.68827 1.25 2.91495 1.25 3.19354C1.25 17.2854 12.7147 28.7488 26.8086 28.75L28.7379 22.394ZM28.7379 22.394L27.3755 28.2999L27.3751 28.3016M28.7379 22.394L27.3751 28.3016M27.3751 28.3016C27.3144 28.5667 27.0874 28.75 26.8087 28.75L27.3751 28.3016Z" fill="#002B9A" stroke="#002B9A" stroke-width="2.5"/>
</svg>
