<svg width="22" height="37" viewBox="0 0 22 37" fill="none" xmlns="http://www.w3.org/2000/svg">
<g clip-path="url(#clip0_768_152)">
<path d="M5.50043 32.375C6.20409 32.375 6.90809 32.1492 7.44434 31.6975L21.1943 20.135C22.2686 19.2317 22.2686 17.7683 21.1943 16.865L7.44434 5.30249C6.37012 4.39917 4.62988 4.39917 3.55566 5.30249C2.48145 6.20581 2.48145 7.66919 3.55566 8.57251L15.3618 18.5L3.55395 28.4293C2.47973 29.3326 2.47973 30.796 3.55395 31.6993C4.09105 32.151 4.79574 32.375 5.50043 32.375Z" fill="#002B9A"/>
<g clip-path="url(#clip1_768_152)">
<path d="M4.24848 32.375C4.95213 32.375 5.65613 32.1492 6.19238 31.6975L19.9424 20.135C21.0166 19.2317 21.0166 17.7683 19.9424 16.865L6.19238 5.30249C5.11816 4.39917 3.37793 4.39917 2.30371 5.30249C1.22949 6.20581 1.22949 7.66919 2.30371 8.57251L14.1098 18.5L2.30199 28.4293C1.22777 29.3326 1.22777 30.796 2.30199 31.6993C2.8391 32.151 3.54379 32.375 4.24848 32.375Z" fill="#FFFBFB"/>
</g>
</g>
<defs>
<clipPath id="clip0_768_152">
<rect width="22" height="37" fill="white" transform="matrix(-1 0 0 1 22 0)"/>
</clipPath>
<clipPath id="clip1_768_152">
<rect width="22" height="37" fill="white" transform="matrix(-1 0 0 1 20.748 0)"/>
</clipPath>
</defs>
</svg>
